<?xml version="1.0" encoding="UTF-8"?>
<svg width="512" height="512" viewBox="0 0 256 256" xmlns="http://www.w3.org/2000/svg" role="img" aria-labelledby="title desc" style="--primary:#0F172A;--accent:#22C55E;--muted:#D4AF37">
  <title id="title">Trade Bot AI Icon — Energetic & Growth</title>
  <desc id="desc">Deep slate with growth green accents and a subtle gold gear.</desc>
  <g fill="none" stroke-linecap="round" stroke-linejoin="round">
    <polygon points="228,128 178,214.6 78,214.6 28,128 78,41.4 178,41.4" stroke="var(--primary)" stroke-width="10"/>
    <path d="M84 156 C100 134 112 124 124 116" stroke="var(--accent)" stroke-width="8"/>
    <path d="M124 116 C138 104 144 98 148 90" stroke="var(--accent)" stroke-width="8"/>
    <circle cx="148" cy="90" r="6" fill="var(--accent)"/>
    <path d="M118 120 C108 110 102 104 98 96" stroke="var(--accent)" stroke-width="6"/>
    <circle cx="98" cy="96" r="5" fill="var(--accent)"/>
    <path d="M112 126 C112 112 112 104 112 92" stroke="var(--accent)" stroke-width="6"/>
    <circle cx="112" cy="92" r="5" fill="var(--accent)"/>
    <g stroke="var(--primary)" stroke-width="6">
      <line x1="148" y1="176" x2="148" y2="132"/>
      <rect x="142" y="144" width="12" height="24" fill="var(--accent)" stroke="none" rx="2"/>
      <line x1="168" y1="184" x2="168" y2="124"/>
      <rect x="162" y="136" width="12" height="28" fill="var(--accent)" stroke="none" rx="2"/>
      <line x1="188" y1="196" x2="188" y2="110"/>
      <rect x="182" y="126" width="12" height="34" fill="var(--accent)" stroke="none" rx="2"/>
    </g>
    <path d="M136 116 L156 102 L170 106 L194 92" stroke="var(--accent)" stroke-width="8"/>
    <path d="M194 92 l-8 0 l6 -6" stroke="var(--accent)" stroke-width="8"/>
    <g transform="translate(70,188)">
      <circle cx="0" cy="0" r="10" fill="var(--muted)"/>
      <g fill="var(--muted)">
        <rect x="-2" y="-18" width="4" height="7" rx="1" transform="rotate(0)"/>
        <rect x="-2" y="-18" width="4" height="7" rx="1" transform="rotate(60)"/>
        <rect x="-2" y="-18" width="4" height="7" rx="1" transform="rotate(120)"/>
        <rect x="-2" y="-18" width="4" height="7" rx="1" transform="rotate(180)"/>
        <rect x="-2" y="-18" width="4" height="7" rx="1" transform="rotate(240)"/>
        <rect x="-2" y="-18" width="4" height="7" rx="1" transform="rotate(300)"/>
      </g>
      <circle cx="0" cy="0" r="4" fill="#ffffff"/>
    </g>
  </g>
</svg>
