<?xml version="1.0" encoding="UTF-8"?>
<svg xmlns="http://www.w3.org/2000/svg" viewBox="0 0 1024 256" width="1024" height="256" role="img" aria-label="Trade Bot AI logo - Monochrome">
  <defs>
    <style>
      :root { --ink: #0F172A; }
      .stroke-ink { stroke: var(--ink); }
      .fill-ink { fill: var(--ink); }
    </style>
  </defs>

  <g transform="translate(0,0)">
    <circle cx="128" cy="128" r="104" fill="none" stroke="var(--ink)" stroke-width="10"/>

    <g fill="none" stroke-width="6" stroke-linecap="round" stroke-linejoin="round" class="stroke-ink">
      <path d="M76 102c16-12 36-18 52-6 15 10 22 26 22 44"/>
      <circle class="fill-ink" cx="90" cy="98" r="5"/>
      <circle class="fill-ink" cx="112" cy="92" r="5"/>
      <circle class="fill-ink" cx="132" cy="106" r="5"/>
      <circle class="fill-ink" cx="150" cy="140" r="5"/>

      <path d="M76 146c18-12 34 8 52-4 12-8 26-6 38 10"/>
      <circle class="fill-ink" cx="96" cy="134" r="5"/>
      <circle class="fill-ink" cx="118" cy="146" r="5"/>
      <circle class="fill-ink" cx="140" cy="134" r="5"/>
      <circle class="fill-ink" cx="160" cy="150" r="5"/>
    </g>

    <g stroke-linecap="round" class="stroke-ink">
      <line stroke-width="4" x1="160" y1="106" x2="160" y2="152"/>
      <rect class="fill-ink" x="154" y="116" width="12" height="28" rx="2"/>

      <line stroke-width="4" x1="178" y1="96" x2="178" y2="152"/>
      <rect class="fill-ink" x="172" y="104" width="12" height="36" rx="2"/>

      <line stroke-width="4" x1="196" y1="88" x2="196" y2="150"/>
      <rect class="fill-ink" x="190" y="92" width="12" height="44" rx="2"/>
    </g>

    <g transform="translate(78,186)" class="fill-ink">
      <circle cx="0" cy="0" r="16"/>
      <circle fill="#ffffff" cx="0" cy="0" r="6"/>
      <rect x="-2.5" y="-28" width="5" height="10" rx="1"/>
      <rect x="-2.5" y="18" width="5" height="10" rx="1"/>
      <rect x="-28" y="-2.5" width="10" height="5" rx="1"/>
      <rect x="18" y="-2.5" width="10" height="5" rx="1"/>
      <rect x="-20" y="-20" width="5" height="10" rx="1" transform="rotate(-45)"/>
      <rect x="15" y="-20" width="5" height="10" rx="1" transform="rotate(45)"/>
      <rect x="-20" y="15" width="5" height="10" rx="1" transform="rotate(45)"/>
      <rect x="15" y="15" width="5" height="10" rx="1" transform="rotate(-45)"/>
    </g>
  </g>

  <g transform="translate(300,0)">
    <text x="0" y="140" font-family="Inter, Poppins, Montserrat, 'Segoe UI', Roboto, Arial, sans-serif" font-size="80" font-weight="800" letter-spacing="2" fill="var(--ink)">
      <tspan>TRADE BOT </tspan><tspan>AI</tspan>
    </text>
    <rect x="0" y="158" width="460" height="6" rx="3" fill="var(--ink)" opacity="0.2"/>
  </g>
</svg>
